<svg xmlns="http://www.w3.org/2000/svg" viewBox="0 0 32 32"><path d="M5.188 23.5c1.813 0 3.313 1.5 3.313 3.313s-1.5 3.313-3.313 3.313-3.313-1.5-3.313-3.313 1.5-3.313 3.313-3.313zM5.188 28.25c0.75 0 1.375-0.625 1.375-1.438 0-0.75-0.625-1.375-1.375-1.375-0.813 0-1.438 .625-1.438 1.375 0 .813 .625 1.438 1.438 1.438zM21.188 23.5c1.813 0 3.313 1.5 3.313 3.313s-1.5 3.313-3.313 3.313-3.313-1.5-3.313-3.313 1.5-3.313 3.313-3.313zM21.188 28.25c0.75 0 1.375-0.625 1.375-1.438 0-0.75-0.625-1.375-1.375-1.375-0.813 0-1.438 .625-1.438 1.375 0 .813 .625 1.438 1.438 1.438zM25.188 3.75h6.813v1.875h-5.188l-0.5 3-1.938 14h-22.438l-2.063-15.125h24.75zM24.313 9.438h-22.313l0.313 1.875h21.75zM3.625 20.75h19.125l1.063-7.563h-21.25z"/></svg>