<svg xmlns="http://www.w3.org/2000/svg" viewBox="0 0 32 32"><path d="M32 6.063c-0.875 1.313-2 2.5-3.313 3.438 .063 .25 .063 .563 .063 .813 0 8.688-6.625 18.688-18.688 18.688-3.688 0-7.188-1.063-10.063-2.938 .5 .063 1.063 .063 1.563 .063 3.063 0 5.938-1 8.188-2.813-2.875-0.063-5.313-1.938-6.125-4.563 .375 .063 .813 .125 1.188 .125 .625 0 1.188-0.063 1.75-0.188-3-0.625-5.25-3.25-5.25-6.438v-0.125c0.875 .5 1.875 .813 2.938 .875-1.75-1.188-2.938-3.188-2.938-5.5 0-1.188 .375-2.313 .938-3.313 3.188 4 8.063 6.625 13.5 6.875-0.063-0.5-0.125-1-0.125-1.5 0-3.625 2.875-6.563 6.5-6.563 1.938 0 3.625 .813 4.813 2.063 1.5-0.25 2.938-0.813 4.188-1.563-0.5 1.5-1.563 2.813-2.875 3.625 1.313-0.188 2.563-0.5 3.75-1.063zM26.875 10.313c0-0.25 0-0.438-0.063-0.688 0-0.375 .063-0.75 .25-1.063-0.313-0.188-0.5-0.5-0.625-0.875-0.125-0.25-0.125-0.563-0.063-0.813-0.313-0.125-0.563-0.25-0.813-0.5-0.875-0.938-2.125-1.5-3.438-1.5-2.563 0-4.625 2.125-4.625 4.688 0 .375 0 .75 .125 1.125 .063 .563-0.063 1.188-0.438 1.625-0.375 .375-0.875 .625-1.438 .625h-0.063c-4.625-0.25-9-2-12.438-5 .125 1.438 .875 2.688 2.063 3.5 .688 .438 1 1.313 .75 2.125-0.25 .75-1 1.313-1.813 1.313h-0.25c0.688 .938 1.688 1.688 2.938 1.938 .875 .188 1.5 .938 1.5 1.813s-0.563 1.625-1.438 1.875v0c0.75 .563 1.75 .938 2.75 .938 .813 0 1.5 .563 1.75 1.313s0 1.563-0.625 2.063c-1.063 .875-2.313 1.563-3.563 2.063 .938 .188 1.813 .25 2.75 .25 11.563 0 16.813-9.813 16.813-16.813z"/></svg>