<svg xmlns="http://www.w3.org/2000/svg" width="87" fill="#545454" height="85"><g clip-path="url(#_clipPath_RhsOZklQf5rvtUBwhXUXSujAYanUBMVb)"><path d="M1.7 0h5v9h-5V0zM34.7 0h4v9h-4V0zM39.7 0h4v9h-4V0zM44.7 0h9v9h-9V0zM67.7 0h14v9h-14V0zM82.7 0h4v9h-4V0zM1.7 19h4v9h-4v-9zM6.7 19h9v9h-9v-9zM16.7 19h4v9h-4v-9zM34.7 19h4v9h-4v-9zM39.7 19h14v9h-14v-9zM67.7 19h5v9h-5v-9zM1.7 38h19v9h-19v-9zM34.7 38h12v9h-12v-9zM48.7 38h5v9h-5v-9zM67.7 38h4v9h-4v-9zM72.7 38h4v9h-4v-9zM77.7 38h4v9h-4v-9zM82.7 38h4v9h-4v-9zM1.7 57h9v9h-9v-9zM11.7 57h4v9h-4v-9zM16.7 57h4v9h-4v-9zM34.7 57h9v9h-9v-9zM44.7 57h9v9h-9v-9zM67.7 57h3v9h-3v-9zM-.3 76h3v9h-3v-9zM3.7 76h3v9h-3v-9zM7.7 76h3v9h-3v-9zM11.7 76h3v9h-3v-9zM15.7 76h3v9h-3v-9zM19.7 76h3v9h-3v-9zM71.7 57h3v9h-3v-9zM75.7 57h3v9h-3v-9zM79.7 57h3v9h-3v-9zM83.7 57h3v9h-3v-9zM74.7 19h5v9h-5v-9zM81.7 19h5v9h-5v-9zM8.7 0h12v9h-12V0z" class="a"/><path d="M35.8 84.9H35l2.2-5.8h.8l2.4 5.8h-.9l-.6-1.7h-2.5l-.6 1.7zm1.5-4.1l-.6 1.7h1.9l-.6-1.6q-.2-.7-.4-1.2-.1.6-.3 1.1zm7 4.1h-.6v-.6q-.5.7-1.3.7-.4 0-.7-.1-.4-.2-.5-.4-.2-.2-.2-.5-.1-.2-.1-.7v-2.6h.7V83q0 .6.1.8 0 .3.3.4.2.2.5.2t.6-.2q.3-.1.4-.4.1-.3.1-.8v-2.3h.7v4.2zm2.7-.6l.1.6q-.3.1-.5.1-.4 0-.6-.2-.3-.1-.3-.3-.1-.2-.1-.8v-2.4H45v-.6h.6v-1l.7-.5v1.5h.7v.6h-.7v2.8q0 .1.1.1.1.1.3.1h.3zm.4-1.5q0-1.2.7-1.7.5-.5 1.3-.5t1.4.6q.5.6.5 1.6 0 .8-.2 1.2-.2.5-.7.7-.5.3-1 .3-.9 0-1.4-.6-.6-.5-.6-1.6zm.7 0q0 .8.4 1.2.3.4.9.4.5 0 .9-.4.3-.4.3-1.2 0-.8-.3-1.2-.4-.4-.9-.4-.6 0-.9.4-.4.4-.4 1.2z"/></g></svg>