<svg xmlns="http://www.w3.org/2000/svg" fill="#363636" height="300" preserveAspectRatio="none"><defs><symbol id="tg2"><path d="M0 0h245v3e2H0zM267 0h245v3e2H267z"/></symbol><symbol id="tg3"><path d="M0 0h156v3e2H0zM178 0h156v3e2H178zM356 0h156v3e2H356z"/></symbol><symbol id="tg4"><path d="M0 0h112v3e2H0zM133.333.0h112v3e2h-112zM266.667.0h112v3e2h-112zM4e2.0h112v3e2H4e2z"/></symbol><symbol id="tg5"><path d="M0 0h85v3e2H0zM106.75.0h85v3e2h-85zM213.5.0h85v3e2h-85zM320.25.0h85v3e2h-85zM427 0h85v3e2h-85z"/></symbol><symbol id="tg6"><path d="M0 0h67v3e2H0zM89 0h67v3e2H89zm89 0h67v3e2h-67zm89 0h67v3e2h-67zm89 0h67v3e2h-67zm89 0h67v3e2h-67z"/></symbol></defs><view id="g2" viewBox="0 0 512 300"/><view id="g3" viewBox="0 301 512 300"/><view id="g4" viewBox="0 601 512 300"/><view id="g5" viewBox="0 901 512 300"/><view id="g6" viewBox="0 1201 512 300"/><use href="#tg2"/><use href="#tg3" y="301"/><use href="#tg4" y="601"/><use href="#tg5" y="901"/><use href="#tg6" y="1201"/></svg>