<svg xmlns="http://www.w3.org/2000/svg" viewBox="0 0 1500 150"><path fill="#fff" d="M1499.996 10.446V0H0V88.667c.753.229 1.604.502 2.478.468-.912.036-1.727.262-2.478.539v6.466c1.966.09 3.739.271 2.282 1.223.63-.225 1.206-.734 2.587-.62l.21.985c1.992-.254 4.215-.445 4.789.109-1.078.234-1.441.67-1.797 1.104 8.422.172 1.78-3.229 9.239-3.317l-.086.64 1.874-.672c.591.352 1.021.776.897 1.33 1.005-.277.541-.586.166-.911l.939.384c2.688-2.187 10.47.197 14.974-.961 1.771-.181 4.102 1.115 7.467.973l-.219-.986c2.716 1.004 12.825 1.637 15.359 3.922 2.553-.765-.269-.207-.212-.988 1.83-.377 3.032-.406 3.953-.264.289 1.085-1.93 1.766 1.072 2.251 2.008.252 2.858-.415 3.618-1.021.243-.065.288-.117.208-.164.565-.439 1.133-.799 2.157-.654-.044-.082-.112-.131-.176-.186 1.191-.287 2.125-.77 4.625-.649-.061.226-.015.444.075.655-.31.046-.596.105-.765.209.249-.062.512-.115.786-.165.199.438.51.827.13 1.101 1.025-.191 1.972-.438 2.41-1.095-.333-.087-.579-.168-.764-.244 2.115-.201 4.659-.209 7.293-.187-.506.418-3.434.862-.778 1.438 1.221-.569 1.447-1.011 1.385-1.435 2.141.022 4.32.056 6.364.016.345.48-1.199 1.375 1.165 1.922 1.077-.24.392-1.339 2.128-1.062-.206-.274-.364-.51-.51-.715 6.838.58 16.058.881 23.493 1.694l.15-.358c3.375.922 7.035.062 10.982.474l-1.929-.524c2.577-.623 4.024-.229 6.462-.494l1.361 1.033c2.641-.34 1.166-.875 3.083-1.412 2.41.656 7.486.051 8.629.098.793.479-.987.66-1.372.949 3.095-.348 2.876-1.336 6.723-1.348l.063.28c9.188-1.472 20.836-1.085 31.056-2.017-.693-.054-.519-.271-.786-.478 10.788-.375 23.237-.431 31.767-2.881-5.83.269-15.707-1.363-21.651.467-2.199-.735-5.588.33-6.5-.713-.599-.032-1.167-.05-1.72-.062-1.031-.625-3.031-1.103-1.116-2.123 1.176-1.267 4.147-1.099 6.238-1.355-1.795-1.434.2-2.047 2.354-2.531-2.809-.035-.719-1.672-4.018-.727l-.065-1.152c1.406.02 3.069.52 4.474.543-.292.312.033.572-.427.762l4.185-.52-.426.762c2.579.129 5.749 1.004 7.286.577-1.242.11-2.318-1.022-1.015-1.358.753-.5 2.125-1.059 3.299-.948.62 1.319 5.063 1.284 2.253 2.625 3.624-.688 2.286-.931 5.75-1.746l-2.32.351c-.292-1.058 1.635-2.826-.587-3.494 2.612-.672.946-2.552 4.444-2.789 1.42.641-.424 2.141-2.387 2.41.989.084 1.888.663 2.91-.066.748.871-1.862 1.543-1.764 1.895 1.798.057-.034-.574 1.663-.871 2.973-1.211 1.894 1.784 4.737 1.023-.622.055-1.728-.281-.981-.783 3.821.021 2.125-1.061 4.9-1.6 1.568 1.527.881 3.184 3.391 3.535l-1.399-.021c.979.781 2.088 1.117 3.102 1.097 5.225-1.336 9.537-3.679 14.924-4.886l-1.927.392c-.652-.523 1.607-.652 1.574-1.23l1.205.689c.329-1.115-2.708-1.062-1.989-2.14.163.134.557.168.785.074l-1.113-.333c2.517.354 4.509-1.637 6.403.148-4.902.224-.75 3.254-5.552 3.828 2.543-.445.452 1.189.713 1.676 1.34.242.657-.855 2.161-.485-.035.803-3.27 1.528-1.832 2.121.164-1.245 1.501-1.002 2.153-1.856 1.111.336-.028.799.46 1.19.618-.056.981-.599 1.534-.431l-.421.767c3.099 1.099.944-1.172 4.469-.84.1-1.021-.98-.781-2.448-.576-.746-2.248 4.541-2.437 4.25-4.869 3.333-.376-.882.945 1.958 1.562 1.565 1.523-2.09 1.638-2.812 2.716l2.944.965c-.983 1.973-2.812 1.338-3.334 3.125 2.188.094 1.927-.392 4.15-1.099-3.594-1.487 1.564-1.227-.49-3.141 1.664.5 1.141.91 3.558.91-1.534.43-.062 1.602-2.091 1.637 3.265-.147 2.383-.578 5.647-.723 1.017-1.396-3.298-1.805.627-2.809.849-.017.683.512.185.508 2.804.543-.576-1.729 1.186-2.441 1.225-.172 1.666.375 1.16.707 1.837-.773.82-1.699 2.043-2.012l-.556-.168c.522-.406-.911-2.379 1.733-2.473 1.93 0 1.326.78 1.371 1.246 1.5-.48 2.652-.076 3.68.409-.104-.272.011-.547.466-.555 2.548-.449 1.465 1.172 2.414 1.375 3.63.688-.453-2.565 3.596-2.642l-4.703-.444c.196-.673.297-1.695-.717-1.677-.095 1.022-1.764 1.898-3.334 1.746-.453-1.188 4.217-1.319 1.571-2.603.947.203 2.258-.128 3.43-.019-1.176 1.265 3.757.242 1.729 1.654 5.13-.314 5.88.561 10.584-.371-.424.764-3.428 2.774-5.878 2.196l-.201-.707c-3.067.854 2.39.802 1.833 2.009 3.787-1.935 8.39.913 13.026.207-.815-.648.104-1.025.3-1.691-1.862.166-1.537.43-2.906-.391.26-.896 1.372-.56 1.959-1.191.489-.985-1.403-.016-2.062-.539 1.77-.521 1.602-.652 2.651-1.469.978.779.846 1.227 1.598 2.102 4.247.182 3.921-1.471 7.121-1.262-1.168-.029.516.753-.344.76l.606.057c-3.039 1.434-8.265 1.396-7.744 3.738 2.483-.223 4.282-1.543 7.315-1.598l-.128.445c2.191.094-.033-.574.487-.986 2.452-.801 3.171 2.252 4.865.58l-2.509-.356c1.894-.965-.557-.168-.101-1.729 3.365-1.172 9.181-.387 13.949-1.539-1.371-.82-1.761-.854-3.56-.914.813-2.102 1.537-1.805.658-3.608l-2.19-.094-.032-1.95c.599-.034 1.192.07 1.723.259.301-1.224 3.321.371 3.469-.797l-1.862.164c-.914-1.004 1.278-.91 2.584-1.242-1.242-1.266-4.051.07-6.695.163.191.708-2.45 2.178.128 2.311-.033.797-1.57 1.227-2.584 1.242.468-.359-1.446-1.757-.236-2.474-1.414.499-.663-.174-2.929.224.358-.539-4.443.034-4.148-1.656-.81.722.042 2.496-2.911 2.578.717 1.168 4.009 1.336 1.801 2.594l1.436-.781c2.057.539-.561 1.211 2.124 1.691-.788-.074-2.388.578-2.744-.262.688 2.477-3.985 1.229-4.115 3.051-.591-.742-1.373-.817-2.85-.613.202-.672-.614-1.32.53-1.785.946.202 1.632-.074 2.678.484-.581-2.461-3.816-.773-6.265-1.291.343.197.44.434-.237.787-1.497-.371-4.798-.801-3.852-1.974l-7.543.316c-.034-.578 1.076-.243 1.537-.433l-4.212-.053c-.419-.333-.219-.523.179-.691 4.081.14 8.204.014 15.944.783 4.062-2.511 3.073-5.408 9.867-7.109 2 1.095 1.125 3.312 10.354 1.599.452-1.121-2.854-1.233-5.447-1.634 17.881-2.733 40.392-6.355 59.25-6.241-9.798 2.433 4.155 2.586 3.149 4.392l18.713-2.677c-5.153 1.58-17.718 3.228-27.362 6.068 5.04 2.725-6.377 7.655 6.729 7.688 5.064-1.988-4.038-2.179 4.35-4.056 3.571.938 7.458.347 12.245-.121-.296 1.528-5.627 2.688-4.35 4.058 6.354-.617 9.665-2.862 10.109-3.979 1.022.541-1.006 1.813 3.173 2.037 9.625-.506 5.341-3.5 5.776-4.613 4.48 1.077 10.853 5.638 18.277 1.043l-6.567 4.771c7.18-.348 7.834-3.391 16.908-2.907-7.949.489-14.716 2.097-10.895 3.937 10.163-3.752 22.36 2.205 27.954-3.363l-1.714 5.188c14.468.229 5.377-3.644 15.39-5.086-3.812.771-.277 1.926-4.921 2.523 1.197 1.434 10.797 1.523 17.88 1.16 17.536-.898 32.971-.183 48.786-.319-1.58 1.729 4.716 2.651 11.916 2.597-9.019 1.108-9.882-1.882-17.067-1.732l6.882 4.306c-7.727-4.071-13.768.919-18.163 2.303-.512-1.079 3.556-4.362-6.082-4.202-4.153.512-2.042 1.642-3.024 2.252-.52-1.084-3.978-3.097-10.359-3.272-1.179 1.452 4.219 2.241 4.62 3.747-4.809-.137-8.728-.457-12.225.725-8.498-1.293.569-2.109-4.62-3.744-13.071.938-1.342 5.068-6.182 8.135 1.031.229 2.098.438 3.18.637-5.122.115-10.316.012-13.859-.739-6.623 1.746-1.484 3.229-10.588 4.478l-4.802-2.961c-8.401 1.078-13.466.106-22.255 2.455l4.872.892 45.941 1.161c.707-1.026 7.156-1.934 6.373-3.135l18.854 1.379c-2.399-.559-6.354-1.024-10.869-1.571 8.457-1.173 8.793-3.702 21.211-3.55l.209.847c32.222-3.913 73.27-.965 109.547-2.538-2.447-.244-1.808-.874-2.732-1.525 19.104.088 39.718.346 59.35-.502 19.629-.834 38.271-2.787 53.297-6.744-10.313.594-24.225-.31-38.154-.828-13.937-.506-27.902-.611-38.48 1.883-5.531-1.706-13.279-.736-18.39-1.233 17.738-.274 40.983-3.834 57.049-2.887-1.957-2.597-16.44-.044-22.573-.795l13.708-2.693-22.854.911c.425-.648.314-1.248.314-1.801-.478 1.322-6.229 2.607-10.022 3.9-6.786.86-13.873 1.195-20.307 1.82-29.784-2.285-42.18 2.672-70.894 1.771-2.104-.359-2.586-.92-2.712-1.581-.004.018.004.034-.002.054-.737.091-1.458.16-2.188.242l-.842-2.059c1.572.439 2.754.912 2.994 1.455-.038-.552.03-1.158-.438-1.774l4.895-.144c3.202.916.838 3.336 8.007 3.867-3.855-.508-.411-1.9-5.083-2.179.757-1.045 5.567-1.728 10.808-2.093l4.236-.123-.601-.075c1.135-.048 2.253-.083 3.313-.103 28.325-.507 50.897-4.836 78.85-3.346.007.018.001.036.006.053.08-.668.521-1.26 2.596-1.765 28.633-2.886 41.332 1.224 70.997-3.149 2.899-3.439 15.138-1.435 22.677-4.344 10.725 1.758 24.65.688 38.519-.779 13.861-1.479 27.676-3.342 38.006-3.461-1.674-.319-3.396-.606-5.149-.873 5.369-.371 10.456-.994 14.61-2.188-5.83.268-15.707-1.363-21.651.467-2.198-.736-5.588.33-6.5-.713-3.709-.198-6.455.043-9.054.381-3.386-.142-6.842-.227-10.354-.262l4.852-.371-3.938-.412c1.704-.461 5.855-.127 6.329-1.057-5.645 1.113-14.672.243-19.598 1.555 2.316.234 5.208-.041 7.948.041.288.079.614.152.942.226-3.973-.003-8.002.051-12.073.16-5.259.137-10.583.361-15.925.638l.05-.16c-.06.064-.123.113-.187.167-1.732.09-3.467.185-5.201.286-.665-.041-1.34-.028-1.997.117-.256.015-.511.032-.766.048-.655-.61 1.19-.962 3.312-1.008-2.565-.299-2.797.697-4.845.672l1.94-1.461c-2.178 1.395-3.907-.27-5.143-.74-.146.357 1.003 1.468-1.731 1.384-1.174-.186-.573-.554-.849-.761-.151.359-1.136 1.018-2.941 1.056-.33-.487 1.199-.733 1.317-1.233-1.361.029-2.472.124-3.458-.279-2.408.406.155.704-1.316 1.234-3.698-.349-.369-1.693-1.73-2.729 2.784-.697 6.368-.916 7.86-1.305l-5.345.4c.323-.574-3.614-.985-.793-1.541-5.324-.525-11.76.111-16.866.573.724.198 1.654.317 1.503.679-2.642.339-2.348-.375-2.889-.789-1.955.396-1.737 1.385-2.938 2.117-4.033-.832-4.601-.325-8.036-1.527l.214.988c-2.436-.797-2.79.697-5.412.116-.146-.212.858-.465 1.666-.694-2.323.324-2.142-.834-4.406-.451l1.797-1.103c-1.805.04-4.452.38-3.521-.562-3.153 1.131-8.686.684-12.623 1.334l.261-.856c-2.036 1.038-7.485-.052-9.253 1.192l-.3-.349-4.055 1.151c-1.835-.102-1.212-1.391-1.359-1.033-4.027.227-7.188.297-9.776-.146-.651 1.15-4.89 1.453-8.261 1.596-3.555-.156-7.171-.213-10.805-.213L756.9 33.682c2.459 1.201 4.22.157 6.565-.622l5.352-.508c.22.034.432.056.662.104 1.396.676-4.635 1.672 1.299 1.595l-.34-.719c8.203.18 13.064 2.315 19.8 2.688 1.003-2.652-5.81-3.412-12.772-4.486l8.494-.805c.979.035 2.067.044 3.31.016.192-.132.357-.255.512-.377l4.664-.441 1.045-.05c-.507.058-.7.246-.301.722 1.589 1.014 4.6.47 5.308 1.9-3.706 1.321-2.824.9-7.871.633.531 1.07 3.023 1.672.812 2.71 12.588 1.137 25.032-3.527 35.338-.56-1.531-1.907 13.268-2.026 4.932-3.282l-.527 1.141c-6.64 1.022-14.817-2.122-15.975-3.336 12.758 1.364 14.775-.064 28.688.214-5.537-2.166 7.862-.764 4.637-2.733 3.171-.233 6.734.227 9.294-.152-7.131 2.201 5.532 2.152 4.348 4.075-4.257.338-8.812-.975-9.1-2.606-2.749.022-2.445 1.653-1.892 2.719l-12.743.937c10.984-.065-.006 5.336 9.832 4.062 2.568-.374-.42-2.913 6.51-2.329 1.236-.011 1.557.421 1.285.865 2.773-.837 5.888-1.55 9.976-.872.105-.747-1.562-1.958 3.675-2.08 7.182-.02 3.368 3.229 4.802 3.848l-1.504.304c3.334.419.605 1.971 5.63 3.085-1.389-.498-.212-1.402 3.124-1.213 4.819 1.02-4.275 4.894 3.325 3.824-1.354.041-1.827-.789.48-.826 10.719 1.319-.999 2.292 1.827 4.45 8.887-.012 6.505.744 15.397.723-5.522.106-1.571-1.887-5.765-2.454 6.107-.177 5.304-.722 8.77-1.549.104.053.216.105.323.158-2.863 2.062 3.105 2.255 2.869 3.215.361-.046.725-.094 1.092-.142-.907-.368-1.768-.876-2.479-1.669l3.66-.825-.005.07c.06-.049.139-.077.208-.116l1.12-.253c1.075-.017 2.371.357 3.034.628l.894-1.082c.841.229 1.563.407 2.179.596-.399.199-.588.505-.494.975.864-.076 1.602-.113 2.236-.121.125.113.238.234.332.373l-.08-.374c5.479.003 2.845 2.373 7.887 1.457l.546-.189.014.059c1.992-.254 4.215-.446 4.789.109-1.078.235-1.441.67-1.797 1.103 8.422.173 1.779-3.228 9.238-3.317l-.086.64 1.894-.679 1.983.809c2.688-2.186 10.471.198 14.975-.961 1.771-.18 4.102 1.116 7.467.973l-.219-.986c2.716 1.004 12.824 1.637 15.358 3.922 2.554-.765-.269-.207-.212-.988 4.981-1.028 5.327.522 7.939 1.105 3.067-.493-2.347-.375-.697-1.119 4.699.748 3.816-1.217 9.621-.562.576.555-1.498.387-2.098.754 4.084-1.008 11.695-.395 17.771-.594 6.948.699 17.211.975 25.334 1.863l.15-.358c3.375.921 7.034.062 10.981.473l-1.929-.524c2.577-.624 4.024-.23 6.462-.495l1.361 1.034c2.641-.34 1.166-.875 3.083-1.412 2.41.656 7.485.05 8.629.098.793.478-.987.66-1.372.949 3.095-.348 2.876-1.336 6.723-1.348l.063.28c9.188-1.472 20.836-1.085 31.056-2.016-.692-.054-.519-.271-.786-.478 10.788-.375 23.237-.43 31.768-2.881-5.83.268-15.707-1.363-21.651.467-2.199-.736-5.588.33-6.5-.713-8.479-.453-11.926 1.393-20.079 1.426-1.169-.188-.602-.695-.938-1.184l6.462-.494-3.938-.412c1.704-.461 5.856-.127 6.329-1.057-5.644 1.113-14.671.243-19.597 1.555 2.315.234 5.208-.041 7.948.041 1.205.329 3.071.572 2.949 1.072-7.84 1.445-14.341.734-22.394 1.189-2.02.115-4.757.032-5.09-.455 1.325-.172.325-.577 1.412-.814-2.854.42-.286 1.781-4.414 1.585l.528-1.713c-1.642 1.81-5.051-.315-7.988.741-1.058-.686.892-1.082 3.149-1.131-2.564-.299-2.796.697-4.844.672l1.94-1.461c-2.179 1.395-3.907-.27-5.144-.74-.146.357 1.003 1.468-1.73 1.384-1.174-.186-.573-.554-.85-.761-.15.359-1.135 1.018-2.94 1.056-.33-.487 1.199-.733 1.316-1.233-1.36.029-2.471.124-3.458-.279-2.407.406.156.704-1.315 1.234-3.698-.349-.369-1.693-1.731-2.729.019-.004.036-.008.054-.012 1.43-.109 2.625-.356 3.703-.665 1.691-.234 3.246-.404 4.104-.627l-2.741.206c2.84-.955 5.262-2.024 10.203-1.159l-1.035-2.875c12.426 2.406 14.273.695 28.696 1.784 4.002-2.605 2.942-5.48 9.696-7.342 2.024 1.047 1.203 3.283 10.389 1.353.426-1.133-2.883-1.166-5.483-1.506 17.812-3.156 40.23-7.313 59.085-7.645-3.678 1.006-3.974 1.606-2.973 2.063-.634.169-1.266.329-1.884.45 1.557.126 2.479.08 3.332-.01 2.147.502 5.248.917 4.775 1.812l3.226-.54c.464.235.96.464 1.549.66l-.891-.771 2.385-.399c.622.115.945.292 2.495-.264l-.043.603c-5.446 1.18-11.841 2.561-17.285 4.307 1.261.644 1.519 1.446 1.393 2.285 2.817-.198 5.592 1.157 9.319.186.371.446 1.201.833 2.229 1.189 3.1.331 6.46-.215 10.458-.702-.169 1-2.472 1.896-3.697 2.768.772.35 1.19.729.979 1.163 5.326-.926 8.096-2.958 8.479-3.991 1.033.518-.964 1.838 3.22 1.962 9.609-.734 5.256-3.626 5.663-4.75 4.507.97 10.983 5.379 18.299.61l-6.452 4.925c7.169-.517 7.75-3.575 16.833-3.31-7.934.681-14.661 2.446-10.797 4.194 10.069-3.993 22.406 1.674 27.865-4.026l-1.589 5.226c.405-.003.788-.009 1.157-.018.146-.294.295-.578.518-.848l6.123-.159c.661-.155 1.088-.714 1.666-1.344.563-.923-.209-4.398 2.437-5.889.301.13.597.268.911.401.044.351.193.693.109.854.369-.103.799-.239 1.271-.399.01.002.018.005.026.007.937-.15 1.078-.243.876-.322.816-.292 1.73-.636 2.724-1.015 1.118-.324 2.333-.682 5.324-.345.576.555-1.498.387-2.098.754 4.084-1.008 11.695-.395 17.771-.594 6.948.699 17.211.975 25.334 1.863l.149-.357c3.375.92 7.035.061 10.982.473l-1.929-.525c2.577-.623 4.024-.23 6.462-.494l1.361 1.033c2.641-.34 1.166-.875 3.083-1.412 2.409.656 7.485.051 8.629.098.793.479-.987.66-1.372.949 3.095-.348 2.876-1.336 6.723-1.348l.063.281c9.188-1.473 20.836-1.086 31.056-2.016-.693-.055-.519-.271-.786-.479 10.788-.375 23.237-.43 31.768-2.881-5.83.268-15.707-1.363-21.651.467-2.199-.736-5.588.33-6.5-.713-8.479-.453-11.926 1.393-20.079 1.426-1.169-.188-.602-.695-.938-1.184l6.462-.494-3.938-.412c1.704-.461 5.856-.127 6.329-1.057-5.644 1.113-14.671.244-19.597 1.555 2.315.234 5.208-.041 7.948.041 1.204.33 3.071.572 2.949 1.072-7.84 1.445-14.341.734-22.394 1.189-2.02.115-4.757.033-5.09-.455 1.324-.172.324-.576 1.411-.814-2.854.42-.285 1.781-4.413 1.586l.528-1.713c-1.642 1.809-5.051-.316-7.988.74-1.058-.686.892-1.082 3.149-1.131-2.564-.299-2.796.697-4.844.672l1.94-1.461c-2.179 1.395-3.907-.27-5.144-.74-.146.357 1.003 1.469-1.73 1.385-1.175-.186-.573-.555-.85-.762-.15.359-1.135 1.018-2.94 1.057-.33-.488 1.198-.734 1.316-1.234-1.36.029-2.471.125-3.458-.279-2.407.406.156.705-1.315 1.234-2.922-.274-1.465-1.172-1.393-2.047.449-.174.803-.368.984-.592 9.334-1.479 21.943.707 26.854-.624 1.562.796 3.37 1.322 5.312 1.713 5.154-.396 10.412-.948 15.86-1.75.007-.019-.002-.034 0-.052.144.658.64 1.205 2.75 1.515 28.774.218 41.041-5.052 70.983-3.448 3.206 3.157 15.204.024 22.981 2.222 2.684-.702 5.596-1.236 8.672-1.643.08-.861 1.393-1.715 5.168-2.572 4.095 1.266 2.197-.465 5.48-.975 3.856.567 4.462 1.404 6.201 2.411 3.705-.075 7.489-.072 11.282-.033-.215-1.285-11.148-1.669-1.317-3.116l3.38 2.573c2.572-3.027 9.65-3.894 17.097-3.512-1.486-.842-1.896-1.733-.154-2.723-.297 2.195 9.601.279 7.645 2.731-1.638.259-3.598-1.107-5.889.091 4.364-.567 3.676.38 6.821.959 1.256-.464 1.902-.812 2.189-1.089.303-.293.218-.503.01-.685zM115.176 87.588c.49.897 3.712.677 2.488 1.485l-5.183.389c.323-.574-3.614-.984-.793-1.541-.434-.043-.885-.066-1.333-.095 1.607-.266 3.319-.479 4.821-.238zm62.479 5.405c-4.344.398-7.729 1.283-13.355 1.307-1.169-.188-.602-.695-.938-1.184l6.462-.494-3.938-.412c1.704-.461 5.856-.127 6.329-1.057-5.644 1.113-14.671.242-19.597 1.555 2.316.234 5.208-.041 7.948.041 1.205.329 3.072.572 2.95 1.072-7.84 1.445-14.341.734-22.394 1.188-2.019.115-4.757.032-5.09-.454 1.325-.173.325-.578 1.412-.814-2.854.42-.286 1.781-4.414 1.585l.529-1.714c-1.642 1.811-5.051-.314-7.989.742-1.057-.687.892-1.082 3.15-1.131-2.565-.3-2.796.696-4.844.672l1.94-1.461c-2.178 1.395-3.907-.271-5.143-.74-.146.356 1.003 1.468-1.731 1.384-1.174-.187-.573-.554-.849-.761-.151.358-1.135 1.018-2.941 1.056-.33-.487 1.199-.733 1.317-1.233-1.361.029-2.471.125-3.458-.279-2.408.406.156.705-1.316 1.234-3.698-.349-.369-1.693-1.731-2.729 2.674-.67 6.064-.899 7.653-1.26-.042.025-.104.057-.156.086.675-.271 2.931-.5 2.255-1.289-.295.316-.62.06-1.239.113l.552-1.207c1.667.5 3.533-1.043 5.132-.315.522.965-3.003.631-1.928 1.766 1.537-1.805 7.805-2.582 9.799-1.821 1.339.242 1.498 1.752 2.057 1.916l2.25-.129c.264.483.298 1.062.717 1.676 1.109.336 1.863-.168 2.551-.445 2.937.965 1.368 2.195-.137 3.199l-1.658-.504c-1.211.687-2.944.406-1.927 1.765.841-.147.812-.722 1.109-1.038l.975.781c.981-.598 3.692-.914 3.402-1.973 1.988.762 4.273-.168 6.038.69-1.21-.688.326-1.117-.032-1.953l-2.121-.315c1.698-.301 4.148-1.099 5.749-.371-.196.668-.261.891.551 1.543-1.141-.914 2.972-1.207.494-2.364-.913.372-1.764.521-2.944.411-.775-1.454 1.085-1.617 2.127-2.438 1.307-.332 3.857-.781 5.619-1.302 1.11.336 1.436 1.972 3.333 1.004-2.416-1.375 2.284-2.305 2.91-3.733 1.83.629 2.97-1.211 4.438-.039-.749.504-3.561.465-4.277 1.543-.102 1.022.621 2.699-2.157 3.238 3.337.514 1.96-.88 3.497-1.298l-1.143.142c.52-.407-.461-1.188.553-1.207 3.917.375 4.605 1.468 7.251 2.754-.59-.743.619-1.434 1.243-1.489 2.104.769.713 1.754 1.046 2.935l-.171-.222-3.725.575c1.477.663 2.264.123 4.239.257.045.054.084.104.139.159.886-.949 2.619-.669 2.032-1.414 1.008-.02.485.391 1.206.688.651-.854 1.407-1.354 2.806-1.336-.127.445-.323 1.113-1.664.871 1.503.375 2.054 1.918 1.402 2.773l-2.447-.578c-1.113 1.043 2.283.449 2.189 1.469-1.08.242-1.894-.41-2.582-.13.16.252.401.383.685.443zm3.364-.517c.545.051.878.174 1.083.334-1.045-.008-2.018.02-2.933.072.657-.151 1.33-.36 1.85-.406zm25.947-22.541c.147-.209.235-.382.299-.537.257-.027.513-.059.77-.086-.264.25-.59.47-1.069.623zm12.148 1.157c-1.962-.188-4.605-.094-6.269-.594 1.03-.526 1.264-1.196.983-1.835 2.101-.241 4.178-.492 6.198-.77l1.44.67c-2.124-.316-1.697 1.672-2.352 2.529zm33.278-.181c-2.258-.127-5.046.055-6.464 1.469l.59-2.007-2.484.224c-1.857-1.212 2.189-1.285 3.43-1.396-3.366-.209-5.619-.078-8.655-.021.885.424.358.836.781 1.449-1.042.82-2.479.223-3.56.465-.262-.484-.129-.93.718-1.078l-2.086.258c.166-1.246-.852-1.228 1.21-2.062l-1.927.39c-2.126-.314.095-1.021.618-1.434l-3.363-.202c-1.206.688.686 1.099-1.632 1.447-2.162-.765-4.739-.789-7.295-.849 4.852-.734 9.29-1.662 12.807-3.021-3.073 3.059 6.178 1.354 12.528.768l-6.089 3.766c7.897-1.733 7.512 1.777 15.623.203-1.678.539-3.6 1.121-4.75 1.631zm4.12 2.479c.833-1.351-.412-1.115-1.201-1.484 1.47-.09 2.701-.329 3.813-.633-.081.42.219.779 1.142.979-1.406-.017-3.398.595-3.754 1.138zm7.02-2.662c-1.152.041-1.354-.154-1.226-.418.643-.187 1.305-.35 2.012-.471-.211.324-.454.629-.786.889zm5.993-3.521l-.025-.075c.125.027.242.053.365.078-.116.003-.227-.002-.34-.003zm.537 1.61l-.347-1.041c.577-.053 1.232-.062 1.766-.232.631.125 1.232.236 1.81.339-.863.533-1.692 1.024-3.229.934zm376.834-18.986l-.087.639 1.894-.678 1.984.809c2.688-2.186 10.47.197 14.974-.961 1.771-.18 4.102 1.115 7.467.973l-.219-.985c1.651.61 6.038 1.086 9.793 1.878-24.436 1.822-48.836 3.846-69.764 2.762l-.15.858c-13.408 1.095-12.883-1.933-23.702-2.181 1.397.777 7.623.857 4.979 2.494-3.978.471-21.714-.151-29.957 2.201-6.729-1.283-1.704-3.119-10.872-3.734l-4.585 3.285c-8.457-.494-13.441.824-22.371-.912l4.799-1.226L608 47.771c1.988.425 2.956 1.431 4.913 2.082l-1.118-.967c3.453-.785 2.379.516 5.107-.466l-.112 1.563c.96-.801 3.371-.146 4.363.261l.893-1.082c2.174.592 3.59.842 4.253 1.821l-.213-.989c.819.623 8.36-.107 5.781 1.577.63-.225 1.206-.735 2.587-.62l.21.985c1.992-.254 4.215-.446 4.789.108-1.078.236-1.441.67-1.797 1.104 8.423.171 1.782-3.227 9.24-3.317zm261.6-7.633l-.062-.053c.079-.017.146-.034.229-.051-.059.035-.111.069-.167.104zm.328-3.373c.113-.254.413-.542.958-.877 7.685-1.226-3.829-2.985 5.243-2.665-.225 1.307 1.227 2.159 3.186 2.851-3.191.209-6.325.441-9.387.691zm29.153-1.521c-.857-1.586-.174-3.404-8.073-3.344 5.045-3.031 10.564-.036 17.38-.848l-3.002.643c.624.127 1.691.031 2.126-.196 2.017 1.656-6.239 1.863-5.282 3.617l3.235-1.222c-.048.751 3.958.885 4.573 1.385-3.625-.086-7.286-.092-10.957-.035zm34.395-.317c-.226-.055-.39-.134-.511-.225.227-.104.444-.213.649-.326l-.138.551zm50.007-.494c-2.642.339-2.348-.375-2.889-.789-1.955.396-1.737 1.385-2.938 2.117-4.033-.832-4.601-.325-8.035-1.527l.213.988c-2.436-.797-2.79.697-5.412.116-.146-.212.858-.465 1.666-.694-2.323.324-2.142-.834-4.406-.451l1.797-1.103c-1.63.036-3.938.313-3.688-.326 6.543-.987 12.628-2.169 17.146-4.042-1.914 1.998 1.146 1.936 5.259 1.438.087-.313.476-.613 1.283-.867 1.53-.008 2.697.07 3.614.206.818-.113 1.624-.218 2.387-.308l-.958.625c2.658.834 2.126 2.444 5.787 3.172-4.188.005-8.61.429-12.331.766.726.199 1.656.318 1.505.679zm14.984-1.279c-.119-.011-.243-.017-.364-.026.322-.058.649-.118 1.003-.195-.209.073-.423.147-.639.221zm230.524-16.727c-1.283-.265-2.214-.394-2.999-.485 1.226-.294 2.517-.337 3.837-.278-.213.262-.45.526-.838.763z"/></svg>