<svg xmlns="http://www.w3.org/2000/svg" width="24" height="24" viewBox="0 0 75 75"><path fill="#DFA300" d="M44.074 33.582l-.84-.84c-3.824-3.824-4.691-7.539-.004-12.23L56.996 6.746c1-.996 1.793-.812 2.605.004l.18.18c.816.812 1 1.609 0 2.605L46.309 23.008l2.355 2.355 13.477-13.472c1-1 1.789-.813 2.605 0l.18.179c.816.817 1 1.606.004 2.606L51.453 28.152l2.355 2.356 13.473-13.473c1-1 1.793-.816 2.605 0l.18.18c.816.816 1 1.609 0 2.609L56.305 33.582c-4.692 4.695-8.41 3.82-12.231 0zm20.5 25.867c2.148 2.148 1.746 3.852-.004 5.602l-.382.383c-1.75 1.755-3.454 2.148-5.603.005L37.973 44.82l-4.082 4.082-27.18-27.179c-3.613-3.614-2.941-6.477.004-9.422l.648-.649c2.942-2.941 5.805-3.617 9.418 0l47.793 47.797zm-49.258 8.02c-2.148 2.148-3.851 1.75-5.601 0l-.383-.383c-1.75-1.75-2.148-3.453-.004-5.602l15.57-15.566 5.989 5.984-15.571 15.567zM73.07 22.82c2.574-2.574 2.574-6.035 0-8.609l-.18-.18c-.961-.961-2.02-1.566-3.16-1.808-.242-1.114-.848-2.196-1.805-3.157l-.18-.179c-.961-.961-2.02-1.567-3.156-1.809-.246-1.113-.848-2.199-1.809-3.16l-.176-.176c-1.277-1.269-2.727-1.922-4.301-1.922-1.086 0-2.719.336-4.309 1.926l-13.76 13.766c-2.379 2.375-3.809 4.828-4.273 7.324L19.777 8.656c-2.461-2.461-5.058-3.707-7.722-3.707-2.684 0-5.2 1.211-7.696 3.707l-.652.649C1.359 11.652.148 14.02.012 16.531c-.157 2.832 1.086 5.586 3.695 8.192l18.191 18.195L6.332 58.484c-1.91 1.91-2.82 3.988-2.699 6.18.105 1.938.988 3.711 2.699 5.422l.387.383c1.797 1.797 3.746 2.711 5.789 2.711 2.058 0 4.015-.91 5.808-2.707l19.657-19.648 17.613 17.614c1.797 1.796 3.754 2.71 5.809 2.71 2.047 0 3.996-.91 5.794-2.71l.386-.388c1.707-1.711 2.59-3.484 2.699-5.418.121-2.191-.789-4.27-2.699-6.18l-15.59-15.59c2.5-.457 4.906-1.867 7.32-4.277L73.07 22.82z"/></svg>