<svg xmlns="http://www.w3.org/2000/svg" viewBox="0 0 32 32"><defs><symbol id="a"><path d="M16.313 0c8.813 0 16 7.188 16 16s-7.188 16-16 16-16-7.188-16-16 7.188-16 16-16zm0 30.125c7.813 0 14.125-6.313 14.125-14.125S24.125 1.875 16.313 1.875 2.188 8.188 2.188 16s6.313 14.125 14.125 14.125zm10.062-13.187h-9.438v-7.5h-1.875v9.375h11.313v-1.875z"/></symbol><symbol id="b"><path d="M29.188 0c1.563 0 2.813 1.25 2.813 2.813v18.813c0 1.563-1.25 2.875-2.813 2.875H12.563L3.75 32.189v-7.688h-.938c-1.563 0-2.813-1.313-2.813-2.875V2.813C-.001 1.25 1.249 0 2.812 0h26.375zm.937 21.625V2.812c0-.5-.438-.938-.938-.938H2.812c-.5 0-.938.438-.938.938v18.813c0 .563.438.938.938.938h2.813v5.5l6.25-5.5h17.313c.5 0 .938-.375.938-.938z"/></symbol><symbol id="d"><path d="M32 31.063v.938H0v-.938c.125-5.125 5.313-9.5 12.438-10.625v-2.375c-1-.938-1.75-2.438-2.188-3.75-.563-.313-1.063-.875-1.438-1.688-.625-1.375-.438-2.688.375-3.25-.063-.375-.063-.813-.063-1.188v-.688c-.063-2.125-.063-4.813 3.125-5.125 0 0 .125-.125.188-.25.5-1 1.25-2 3.688-2.125h.5c3.563 0 6 1.313 6.813 3.688.25.688 0 1.313-.188 1.813-.25.625-.5 1.313-.375 2.563.063.438 0 .938 0 1.375.625.563.813 1.75.375 3.063-.313.938-.875 1.625-1.5 1.938-.438 1.188-1.125 2.563-2 3.438v2.625c7 1.125 12.125 5.5 12.25 10.563zm-30-.938h28C29.312 26.25 24.687 23 18.687 22.25l-.875-.125V17l.375-.313c.688-.5 1.375-1.688 1.938-3.313l.188-.625h.688c0-.063.25-.313.438-.875.125-.375.188-.688.188-.875l-.875.063.188-1.5c.063-.438.125-.938.063-1.25-.188-1.75.188-2.813.5-3.5.063-.188.125-.438.125-.5-.688-2.125-3.438-2.438-5-2.438h-.438c-1.563.063-1.813.563-2.063 1.125-.25.438-.625 1.188-1.688 1.25-1.375.125-1.5.688-1.438 3.188v.75c0 .563.063 1.188.125 1.813l.188 1.375-1-.25c.063.188.125.438.25.75.188.563.5.813.625.813l.563.125.125.5c.563 1.688 1.313 3 2.063 3.5l.375.25v5.063l-.813.063c-6.125.75-10.75 4-11.5 7.938z"/></symbol><symbol id="e"><path d="M31.25 29.875l-1.313 1.313-9.75-9.75c-2.125 1.875-4.938 3-7.938 3-6.75 0-12.25-5.5-12.25-12.25 0-3.25 1.25-6.375 3.563-8.688C5.875 1.25 8.937-.063 12.25-.063c6.75 0 12.25 5.5 12.25 12.25 0 3-1.125 5.813-3 7.938zm-19-7.312c5.688 0 10.313-4.688 10.313-10.375S17.938 1.813 12.25 1.813c-2.813 0-5.375 1.125-7.313 3.063-2 1.938-3.063 4.563-3.063 7.313 0 5.688 4.625 10.375 10.375 10.375z"/></symbol></defs><view id="t" viewBox="0 0 32 32"/><view id="c" viewBox="0 32 32 32"/><view id="u" viewBox="0 64 32 32"/><view id="s" viewBox="0 128 32 32"/><use href="#a"/><use y="32" href="#b"/><use y="64" href="#d"/><use y="128" href="#e"/></svg>