<svg xmlns="http://www.w3.org/2000/svg" viewBox="0 0 32 32"><path d="M32 31.063v.938H0v-.938c.125-5.125 5.313-9.5 12.438-10.625v-2.375c-1-.938-1.75-2.438-2.188-3.75-.563-.313-1.063-.875-1.438-1.688-.625-1.375-.438-2.688.375-3.25-.063-.375-.063-.813-.063-1.188v-.688c-.063-2.125-.063-4.813 3.125-5.125 0 0 .125-.125.188-.25.5-1 1.25-2 3.688-2.125h.5c3.563 0 6 1.313 6.813 3.688.25.688 0 1.313-.188 1.813-.25.625-.5 1.313-.375 2.563.063.438 0 .938 0 1.375.625.563.813 1.75.375 3.063-.313.938-.875 1.625-1.5 1.938-.438 1.188-1.125 2.563-2 3.438v2.625c7 1.125 12.125 5.5 12.25 10.563zm-30-.938h28C29.312 26.25 24.687 23 18.687 22.25l-.875-.125V17l.375-.313c.688-.5 1.375-1.688 1.938-3.313l.188-.625h.688c0-.063.25-.313.438-.875.125-.375.188-.688.188-.875l-.875.063.188-1.5c.063-.438.125-.938.063-1.25-.188-1.75.188-2.813.5-3.5.063-.188.125-.438.125-.5-.688-2.125-3.438-2.438-5-2.438h-.438c-1.563.063-1.813.563-2.063 1.125-.25.438-.625 1.188-1.688 1.25-1.375.125-1.5.688-1.438 3.188v.75c0 .563.063 1.188.125 1.813l.188 1.375-1-.25c.063.188.125.438.25.75.188.563.5.813.625.813l.563.125.125.5c.563 1.688 1.313 3 2.063 3.5l.375.25v5.063l-.813.063c-6.125.75-10.75 4-11.5 7.938z"/></svg>