<?xml version="1.0" encoding="iso-8859-1"?>
<!-- Generator: Adobe Illustrator 19.0.0, SVG Export Plug-In . SVG Version: 6.00 Build 0)  -->
<svg xmlns="http://www.w3.org/2000/svg" xmlns:xlink="http://www.w3.org/1999/xlink" version="1.1" id="Layer_1" x="0px" y="0px" viewBox="0 0 486.783 486.783" style="enable-background:new 0 0 486.783 486.783;" xml:space="preserve" width="24px" height="24px">
<g>
	<path d="M449.616,433.108l-53.652,9.46L372.55,309.786c5.125-8.99,15.447-29.021,24.127-57.94   c10.803-35.994,21.104-93.511,8.833-163.109c-4.734-26.85-11.228-52.595-19.3-76.521L382.089,0L243.391,24.456L104.694,0   l-4.121,12.216c-8.072,23.926-14.565,49.671-19.3,76.521c-12.272,69.598-1.971,127.115,8.833,163.109   c8.68,28.92,19.002,48.951,24.127,57.94L90.819,442.569l-53.652-9.46l-5.21,29.544l136.849,24.13l5.21-29.544l-53.653-9.46   l23.414-132.783c7.89-6.694,24.441-21.987,42.489-46.194c18.932-25.394,42.757-65.277,57.126-118.856   c14.369,53.579,38.194,93.463,57.126,118.856c18.047,24.207,34.599,39.5,42.489,46.194l23.414,132.783l-53.653,9.46l5.21,29.544   l136.849-24.13L449.616,433.108z M361.718,34.055c5.618,18.397,10.273,37.847,13.9,57.996H262.668   c-1.827-13.516-3.102-26.842-3.788-39.863L361.718,34.055z M227.903,52.188c-0.687,13.02-1.961,26.347-3.788,39.863H111.165   c3.626-20.148,8.282-39.599,13.9-57.996L227.903,52.188z M162.935,249.898c-10.839,14.661-21.109,25.739-28.776,33.234   c-12.574-26.219-34.161-84.034-27.103-161.082h112.086C207.191,180.819,182.237,223.79,162.935,249.898z M323.848,249.898   c-19.302-26.108-44.256-69.08-56.206-127.848h112.071c4.595,50.599-3.237,92.331-11.424,120.012   c-5.17,17.48-11.03,31.4-15.67,41.065C344.952,275.632,334.684,264.556,323.848,249.898z" fill="#ff887b"/>
</g>
</svg>
